# xmcd
#
# Track frame offsets: 
#        150
#        12558
#        27470
#        41940
#        53844
#        69511
#        81883
#        92928
#        104090
#        117934
#        130230
#        141583
#        153599
#        167012
#        179248
#        192971
#        209130
#        218304
#        228890
#        242292
#
# Disc length: 3439 seconds
#
# Revision: 1
# Processed by: cddbd v1.5.2PL0 Copyright (c) Steve Scherf et al.
# Submitted via: ExactAudioCopy v1.0b1
#
DISCID=2d0d6d14
DTITLE=Various Artist - 100 Country Classics Vol.1 - CD3
DYEAR=2009
DGENRE=Country
TTITLE0=Charlie Rich - Behind Closed Doors
TTITLE1=Kenny Rogers - For The Good Times
TTITLE2=Freddy Fender - Since I Met You Baby
TTITLE3=Skeeter Davis - The End Of The World
TTITLE4=Billie Jo Spears - Blanket On The Ground
TTITLE5=Bobby Bare - The Year That Clayton Delaney
TTITLE6=Patsy Cline - A Stranger In My Arms
TTITLE7=Conway Twitty - Hello Darlin'
TTITLE8=Bill Monroe - Blue Moon Of Kentucky
TTITLE9=Merle Haggard - The Roots Of My Raising
TTITLE10=Frankie Lane - Mule Train
TTITLE11=Jeannie Pruett - Satin Sheets
TTITLE12=Roy Rogers - Saddle Serenade
TTITLE13=Dottie West - Crazy
TTITLE14=Hank Williams - Ramblin' Man
TTITLE15=Ed Bruce - After All
TTITLE16=The Harden Trio - Tippytoeing
TTITLE17=Stonewall Jackson - Waterloo
TTITLE18=Merle Haggard - Cherokee Maiden
TTITLE19=Tammy Wynette - Crying In The Rain
EXTD=YEAR: 2008
EXTT0=
EXTT1=
EXTT2=
EXTT3=
EXTT4=
EXTT5=
EXTT6=
EXTT7=
EXTT8=
EXTT9=
EXTT10=
EXTT11=
EXTT12=
EXTT13=
EXTT14=
EXTT15=
EXTT16=
EXTT17=
EXTT18=
EXTT19=
PLAYORDER=
